# Blender 4.1.1
# www.blender.org
mtllib tree2.mtl
o Mesh_0
v -0.293325 0.612368 -0.426639
v -0.054620 0.631696 -0.495576
v 0.221203 0.552086 -0.432485
v 0.469511 0.559613 -0.163628
v 0.261278 0.637422 -0.429085
v -0.310530 0.734901 -0.304212
v 0.118647 0.755930 -0.383756
v -0.093768 0.797776 -0.395524
v 0.220979 0.968810 -0.315519
v 0.046654 0.937660 -0.337907
v 0.102500 0.530139 -0.068289
v -0.196064 0.949363 -0.322996
v -0.335595 1.046971 -0.171529
v 0.080082 1.140045 -0.268363
v -0.066406 1.189888 -0.293427
v 0.035921 1.028299 -0.351670
v 0.068896 1.201820 -0.292870
v 0.212786 1.222978 -0.192394
v -0.104851 1.419019 -0.224120
v 0.029532 1.344395 -0.216799
v 0.010219 0.571407 -0.456937
v -0.082212 0.112868 -0.199243
v 0.084101 0.046573 -0.133810
v 0.134104 0.115388 -0.152307
v 0.277058 0.774921 -0.254727
v 0.358824 0.840733 -0.148514
v 0.306821 0.939901 -0.127422
v 0.201719 0.902688 -0.271015
v -0.410500 0.762952 0.019185
v 0.198703 1.397391 -0.130846
v -0.107737 1.355017 -0.205430
v 0.188735 1.340528 -0.117693
v -0.018302 1.880981 -0.012969
v 0.055844 1.392083 -0.230509
v -0.497919 0.541075 -0.080353
v -0.516078 0.604611 -0.073174
v 0.202205 1.168453 -0.183772
v -0.200484 0.067349 -0.067510
v 0.023718 0.297197 -0.150188
v -0.031478 0.519785 -0.108177
v -0.228886 1.171594 -0.204417
v -0.223213 0.538805 -0.444282
v -0.114917 0.520943 -0.030075
v 0.181143 0.113812 -0.007797
v 0.104835 0.411304 -0.050129
v -0.288634 1.210175 -0.093066
v -0.240038 1.377710 -0.110841
v -0.217274 1.325278 -0.109020
v -0.241472 1.382071 0.015574
v -0.355252 0.922423 -0.067442
v -0.391724 0.831628 -0.123628
v 0.346734 1.004352 -0.089113
v -0.216899 0.538645 -0.032422
v -0.382512 1.018270 0.090411
v 0.157009 0.058602 0.059190
v -0.064738 0.029625 0.055746
v 0.208404 1.345761 -0.030271
v 0.490396 0.613096 -0.117774
v 0.276245 0.983649 0.212858
v -0.162141 1.432245 0.155037
v -0.009184 0.067203 0.189692
v 0.088470 0.524210 0.052002
v -0.299402 0.750326 0.246709
v -0.291261 1.151285 0.046257
v -0.171755 0.083582 0.123125
v 0.140071 0.116944 0.121923
v 0.365221 0.783921 -0.062883
v 0.418132 0.590929 0.168165
v -0.319335 0.838584 0.246699
v -0.261724 0.916520 0.201212
v 0.270776 1.220743 -0.006196
v 0.164143 1.353148 0.132486
v 0.203188 1.421070 0.071955
v 0.375242 0.827181 0.096987
v 0.282067 1.121026 0.077930
v 0.214635 1.206144 0.208311
v -0.309073 1.212850 0.078218
v 0.324519 0.928634 0.045869
v 0.049688 1.366899 0.217437
v -0.002899 0.510536 0.094737
v -0.367918 0.554812 0.218992
v -0.466059 0.581441 0.121329
v -0.380534 0.697595 0.253951
v -0.213048 1.362551 0.115709
v -0.174787 1.237112 0.252585
v 0.333602 0.557693 0.360589
v 0.179214 0.829016 0.346522
v 0.027910 1.426066 0.227316
v -0.089128 0.526555 0.068405
v 0.039378 1.143251 0.279085
v -0.046395 1.352944 0.219930
v -0.186696 0.518765 0.332590
v 0.444560 0.667909 0.117846
v 0.334115 0.764148 0.159003
v -0.169443 0.997550 0.323956
v -0.303807 0.976445 0.217218
v -0.168306 1.169130 0.223152
v 0.208091 0.756671 0.307086
v -0.133851 0.909705 0.294671
v 0.038156 1.222131 0.294106
v 0.220006 0.920119 0.213546
v 0.009228 0.944608 0.310860
v 0.040331 0.994883 0.341157
v 0.341605 0.657306 0.318552
v -0.114022 0.845182 0.360934
v -0.157100 0.624441 0.451250
v -0.086076 0.752761 0.378170
v -0.333563 0.583972 0.377032
v -0.039267 0.559315 0.412130
v 0.161459 0.605579 0.448542
vn 0.0262 -0.5193 -0.8542
vn 0.0550 -0.4962 -0.8665
vn 0.2066 -0.0581 -0.9767
vn -0.2815 0.4456 -0.8498
vn 0.1516 0.5360 -0.8305
vn -0.2750 -0.0316 -0.9609
vn 0.1668 0.5209 -0.8372
vn 0.3965 0.7031 -0.5903
vn -0.4196 0.1455 -0.8960
vn -0.0361 0.4114 -0.9107
vn 0.0704 -0.9968 -0.0371
vn 0.7039 -0.3050 -0.6415
vn -0.4522 0.5978 -0.6619
vn 0.5928 0.2520 -0.7649
vn 0.1086 0.2834 -0.9528
vn -0.0681 -0.1577 -0.9851
vn 0.1493 -0.1311 -0.9801
vn -0.1936 0.2219 -0.9557
vn 0.4373 0.3790 -0.8156
vn -0.0809 -0.9930 -0.0862
vn -0.6804 -0.5261 -0.5103
vn 0.2055 -0.5869 -0.7831
vn 0.0358 -0.3629 -0.9311
vn -0.5423 0.3842 -0.7472
vn 0.3256 0.5419 -0.7748
vn 0.3060 0.4883 -0.8172
vn -0.0371 0.4624 -0.8859
vn 0.7970 -0.4794 -0.3674
vn -0.4831 0.3145 -0.8171
vn -0.0376 0.4626 -0.8858
vn 0.4525 0.4111 -0.7913
vn 0.5890 -0.2036 -0.7820
vn 0.5794 -0.2358 -0.7802
vn 0.4389 0.5143 -0.7368
vn -0.1005 -0.2747 -0.9563
vn -0.0780 -0.2355 -0.9687
vn 0.1154 -0.9845 -0.1319
vn 0.6573 0.2994 -0.6916
vn -0.7905 -0.3145 -0.5256
vn -0.4880 0.1933 -0.8512
vn 0.1998 -0.3871 -0.9001
vn 0.7989 0.1801 -0.5739
vn -0.7633 0.3604 -0.5362
vn -0.7046 0.4624 -0.5383
vn 0.4535 0.5423 -0.7073
vn 0.5121 -0.4861 -0.7081
vn 0.0326 0.4104 -0.9113
vn -0.1697 -0.8744 -0.4545
vn 0.2085 0.1379 -0.9683
vn -0.7169 0.6397 -0.2771
vn 0.8214 -0.4450 -0.3566
vn 0.8155 -0.1776 -0.5509
vn 0.7046 0.5248 -0.4776
vn -0.9216 -0.2884 -0.2599
vn 0.6507 0.4684 -0.5977
vn 0.5029 -0.2775 -0.8186
vn 0.1382 -0.9904 -0.0025
vn 0.6983 0.6242 -0.3502
vn 0.7741 0.3978 -0.4924
vn -0.7701 0.6221 -0.1412
vn -0.6730 0.3252 -0.6643
vn -0.5923 -0.2011 -0.7802
vn 0.8931 0.3568 -0.2739
vn -0.5895 -0.2822 -0.7568
vn 0.5107 0.4130 -0.7541
vn -0.8308 -0.1778 -0.5274
vn -0.7873 0.3769 -0.4879
vn -0.7366 0.5443 -0.4014
vn 0.7795 0.6134 -0.1267
vn -0.7624 0.1947 -0.6172
vn -0.2062 0.3606 -0.9097
vn 0.2598 0.2409 -0.9351
vn -0.8045 -0.5415 -0.2441
vn -0.0086 -1.0000 -0.0003
vn 0.9358 -0.1593 -0.3144
vn -0.6559 0.4120 -0.6325
vn -0.6833 -0.0317 -0.7295
vn 0.8135 -0.0722 -0.5771
vn 0.9292 -0.2265 -0.2921
vn 0.7498 -0.6123 -0.2508
vn 0.8886 0.4002 -0.2239
vn -0.1123 -0.9780 -0.1756
vn 0.5191 0.3244 -0.7908
vn 0.8551 -0.4868 0.1784
vn 0.9556 -0.2143 -0.2022
vn 0.9925 0.1171 -0.0356
vn -0.8132 0.4536 -0.3647
vn -0.9173 -0.3981 0.0033
vn -0.1669 -0.9723 -0.1639
vn -0.3248 -0.9234 -0.2044
vn 0.1079 -0.9881 0.1100
vn -0.9131 0.4070 -0.0244
vn 0.9330 0.1964 -0.3016
vn -0.8350 0.5429 -0.0901
vn 0.9037 0.4224 -0.0693
vn 0.7455 -0.6206 -0.2429
vn -0.0615 -0.9954 0.0728
vn -0.8664 0.4415 0.2335
vn -0.9463 0.2688 0.1799
vn 0.9669 0.2334 -0.1030
vn 0.9924 0.0375 0.1176
vn 0.8789 0.4734 -0.0590
vn 0.8744 -0.4702 -0.1199
vn -0.0430 -0.9783 0.2026
vn -0.9845 0.0088 -0.1754
vn 0.1294 -0.9915 0.0129
vn 0.9519 -0.0490 0.3026
vn 0.8055 0.3739 0.4598
vn -0.9686 -0.2220 -0.1121
vn -0.9345 -0.2903 0.2057
vn -0.8966 0.3494 0.2722
vn 0.8097 0.5865 0.0211
vn 0.9189 -0.2937 0.2632
vn 0.1230 -0.9676 0.2204
vn 0.9011 0.4322 -0.0364
vn -0.9760 0.1732 0.1323
vn 0.6816 0.7142 0.1592
vn 0.9529 0.1910 0.2355
vn 0.8576 0.4687 0.2119
vn 0.9570 -0.1796 0.2279
vn -0.8271 0.5412 0.1515
vn -0.6988 0.6671 0.2580
vn -0.7466 -0.6180 0.2463
vn 0.9629 0.1346 0.2340
vn -0.9364 0.3308 -0.1169
vn -0.8510 0.4001 0.3401
vn -0.2353 -0.9060 0.3518
vn -0.9494 0.2063 0.2368
vn -0.2050 -0.9769 -0.0603
vn -0.6814 0.6045 0.4127
vn 0.4277 -0.0350 0.9032
vn -0.5030 0.8139 0.2908
vn 0.9977 0.0128 -0.0660
vn -0.3771 -0.9163 0.1348
vn -0.6976 -0.4786 0.5332
vn 0.9101 0.3225 0.2601
vn -0.3572 0.1798 0.9166
vn 0.8972 0.3450 0.2757
vn 0.8684 -0.4898 0.0781
vn 0.6093 0.4179 0.6739
vn 0.4896 -0.5686 0.6610
vn -0.2506 0.2061 0.9459
vn 0.2065 -0.9782 -0.0241
vn -0.8848 -0.1998 0.4210
vn 0.7833 0.0936 0.6146
vn -0.7529 -0.6006 0.2692
vn -0.6659 0.3812 0.6413
vn 0.8661 0.4295 0.2559
vn 0.6431 0.2692 0.7169
vn 0.6450 0.5757 0.5025
vn 0.4751 -0.6039 0.6400
vn -0.8311 0.4520 0.3240
vn 0.6888 -0.6055 0.3986
vn 0.5542 0.5712 0.6055
vn -0.8417 0.4324 0.3232
vn 0.2245 -0.9590 0.1731
vn 0.6005 0.0883 0.7947
vn -0.3108 0.4190 0.8531
vn 0.3523 0.1912 0.9162
vn 0.0095 -0.9949 0.1004
vn -0.4849 -0.8352 0.2595
vn -0.8810 0.1289 0.4552
vn 0.7739 0.3862 0.5020
vn -0.7639 0.3550 0.5389
vn -0.3889 0.6225 0.6792
vn 0.9177 -0.0581 0.3931
vn -0.2177 -0.9681 0.1238
vn 0.5472 0.5244 0.6523
vn -0.5318 -0.0869 0.8424
vn 0.2217 -0.9726 -0.0706
vn 0.6838 0.6207 0.3836
vn 0.7619 -0.0480 0.6460
vn -0.7249 -0.3307 0.6043
vn 0.0471 -0.1476 0.9879
vn -0.1445 -0.9861 -0.0824
vn 0.2354 -0.9702 0.0583
vn -0.1665 0.5003 0.8497
vn 0.4193 -0.1636 0.8930
vn -0.0454 0.4704 0.8813
vn -0.3370 0.2508 0.9075
vn 0.4303 0.3955 0.8114
vn -0.1459 0.4149 0.8981
vn -0.3322 -0.9120 0.2405
vn 0.8804 0.1226 0.4581
vn 0.5027 0.7290 0.4646
vn 0.4298 -0.3716 0.8229
vn -0.4778 -0.5239 0.7051
vn -0.5343 0.6463 0.5448
vn -0.2769 -0.1839 0.9431
vn 0.2205 -0.3975 0.8907
vn -0.4067 0.5907 0.6969
vn -0.4157 0.6677 0.6175
vn -0.2023 -0.4053 0.8915
vn -0.5411 -0.4550 0.7072
vn 0.2708 -0.6142 0.7412
vn -0.0706 0.3846 0.9204
vn 0.4611 0.3450 0.8176
vn -0.2413 0.6582 0.7131
vn -0.0274 -0.3261 0.9449
vn -0.5200 -0.1174 0.8460
vn 0.3600 0.7145 0.5999
vn -0.0778 -0.4788 0.8745
vn -0.3675 0.6559 0.6593
vn -0.4194 0.6133 0.6693
vn -0.4865 0.0158 0.8735
vn 0.3643 0.5741 0.7333
vn 0.0664 0.3820 0.9218
vn -0.4254 0.5783 0.6962
vn 0.1715 0.6446 0.7450
vn 0.0591 0.2003 0.9780
vn -0.1398 -0.7530 0.6430
vn -0.1426 -0.6863 0.7132
vn 0.0781 -0.8034 0.5903
vn 0.4991 0.3026 0.8120
vn -0.0253 -0.5480 0.8361
vn 0.0358 0.4795 0.8768
vt 0.071100 0.554024
vt 0.103854 0.645674
vt 0.106281 0.566640
vt 0.038215 0.475460
vt 0.066321 0.455104
vt 0.183026 0.551099
vt 0.145477 0.656987
vt 0.134643 0.477083
vt 0.125363 0.394610
vt 0.263007 0.559359
vt 0.214712 0.645823
vt 0.215411 0.472725
vt 0.810547 0.476852
vt 0.673414 0.432329
vt 0.781008 0.328319
vt 0.022993 0.334314
vt 0.182292 0.411834
vt 0.250477 0.463371
vt 0.208981 0.409934
vt 0.327167 0.471344
vt 0.888378 0.444479
vt 0.822348 0.948049
vt 0.650293 0.992003
vt 0.809217 0.986213
vt 0.287586 0.423745
vt 0.311735 0.422835
vt 0.343701 0.601088
vt 0.280976 0.367553
vt 0.374333 0.406966
vt 0.211155 0.319985
vt 0.362623 0.537012
vt 0.403082 0.457245
vt 0.301243 0.357677
vt 0.428754 0.444289
vt 0.390114 0.391912
vt 0.834136 0.315542
vt 0.147893 0.341106
vt 0.163434 0.656485
vt 0.170125 0.779240
vt 0.214860 0.729829
vt 0.038430 0.286129
vt 0.041562 0.199074
vt 0.012124 0.215996
vt 0.042576 0.313220
vt 0.077756 0.697865
vt 0.126287 0.769068
vt 0.273990 0.698657
vt 0.295419 0.745810
vt 0.357138 0.661122
vt 0.351669 0.333607
vt 0.373980 0.324444
vt 0.595736 0.312710
vt 0.889175 0.000421
vt 0.838211 0.051573
vt 0.877590 0.115903
vt 0.111893 0.243150
vt 0.025484 0.815701
vt 0.106118 0.826906
vt 0.124497 0.312710
vt 0.189732 0.343449
vt 0.862458 0.864899
vt 0.675480 0.883291
vt 0.277743 0.805269
vt 0.344373 0.722441
vt 0.364737 0.724218
vt 0.385992 0.655303
vt 0.571930 0.581815
vt 0.627628 0.628063
vt 0.551421 0.633521
vt 0.024969 0.655303
vt 0.000418 0.817313
vt 0.555518 0.654988
vt 0.669355 0.664250
vt 0.612898 0.730957
vt 0.831522 0.544914
vt 0.886850 0.577323
vt 0.924207 0.391835
vt 0.210284 0.298401
vt 0.202800 0.199074
vt 0.201908 0.254228
vt 0.590719 0.709044
vt 0.431447 0.214226
vt 0.525849 0.176786
vt 0.479830 0.166908
vt 0.361531 0.200769
vt 0.362822 0.141644
vt 0.326505 0.197824
vt 0.607729 0.574835
vt 0.943331 0.048882
vt 0.163845 0.200457
vt 0.017131 0.110002
vt 0.138289 0.101228
vt 0.001254 0.090488
vt 0.563024 0.559221
vt 0.638866 0.537964
vt 0.374559 0.772197
vt 0.847477 0.273065
vt 0.888378 0.139256
vt 0.625848 0.307683
vt 0.221060 0.825509
vt 0.576304 0.342172
vt 0.339838 0.115651
vt 0.821301 0.244079
vt 0.116559 0.922864
vt 0.159947 0.902737
vt 0.526332 0.128992
vt 0.603710 0.758536
vt 0.670273 0.752494
vt 0.602686 0.798319
vt 0.581059 0.949660
vt 0.956448 0.135101
vt 0.364407 0.088805
vt 0.940217 0.950758
vt 0.940217 0.647727
vt 0.930184 0.762233
vt 0.306417 0.811632
vt 0.046875 0.890113
vt 0.051826 0.188131
vt 0.115370 0.131638
vt 0.673031 0.553231
vt 0.999582 0.062894
vt 0.687288 0.794333
vt 0.962793 0.578704
vt 0.609114 0.205641
vt 0.607603 0.115741
vt 0.553544 0.185168
vt 0.734066 0.711486
vt 0.194864 0.887879
vt 0.419868 0.822665
vt 0.965958 0.000421
vt 0.962793 0.392972
vt 0.562048 0.897872
vt 0.301810 0.884383
vt 0.528010 0.088805
vt 0.278974 0.191006
vt 0.214465 0.115741
vt 0.244813 0.207162
vt 0.634470 0.816077
vt 0.708171 0.609283
vt 0.609114 0.023990
vt 0.610235 0.091869
vt 0.790552 0.023990
vt 0.714598 0.814568
vt 0.718207 0.492840
vt 0.990678 0.130577
vt 0.788924 0.060192
vt 0.763152 0.284360
vt 0.132865 0.919468
vt 0.792051 0.776824
vt 0.219007 0.875896
vt 0.247583 0.929778
vt 0.784164 0.602075
vt 0.381826 0.816118
vt 0.494262 0.628448
vt 0.518288 0.605530
vt 0.545569 0.678030
vt 0.787189 0.252710
vt 0.739421 0.135985
vt 0.724179 0.519938
vt 0.472604 0.887111
vt 0.645214 0.145202
vt 0.620819 0.223559
vt 0.507107 0.864899
vt 0.101284 0.989868
vt 0.743480 0.743739
vt 0.354520 0.891171
vt 0.428256 0.885188
vt 0.223662 0.090488
vt 0.539167 0.259225
vt 0.785394 0.806009
vt 0.354248 0.087121
vt 0.433528 0.052609
vt 0.353107 0.057834
vt 0.759396 0.499209
vt 0.804960 0.137243
vt 0.336117 0.953532
vt 0.772306 0.568898
vt 0.417939 0.957465
vt 0.846153 0.087963
vt 0.205935 0.131368
vt 0.486634 0.220812
vt 0.476171 0.524710
vt 0.269517 0.084254
vt 0.268813 0.052609
vt 0.889214 0.765154
vt 0.203135 0.972934
vt 0.219830 0.941939
vt 0.489910 0.443394
vt 0.545569 0.404461
vt 0.523646 0.462559
vt 0.500570 0.515803
vt 0.826670 0.652410
vt 0.889214 0.593166
vt 0.264617 0.973827
vt 0.178911 0.999579
vt 0.823925 0.710371
vt 0.337041 0.283625
vt 0.369206 0.228080
vt 0.460068 0.299693
vt 0.883394 0.728081
vt 0.261669 0.273329
vt 0.767870 0.088592
vt 0.659848 0.155014
vt 0.537454 0.301768
s 0
usemtl Material_0
f 21/1/1 42/2/1 2/3/1
f 2/3/2 3/4/2 21/1/2
f 5/5/3 3/4/3 2/3/3
f 8/6/4 2/3/4 1/7/4
f 7/8/5 2/3/5 8/6/5
f 42/2/6 1/7/6 2/3/6
f 2/3/7 7/8/7 5/5/7
f 25/9/8 5/5/8 7/8/8
f 12/10/9 8/6/9 6/11/9
f 10/12/10 8/6/10 12/10/10
f 3/13/11 4/14/11 11/15/11
f 5/5/12 4/16/12 3/4/12
f 1/7/13 6/11/13 8/6/13
f 28/17/14 25/9/14 7/8/14
f 7/8/15 8/6/15 10/12/15
f 10/12/16 12/10/16 16/18/16
f 10/12/17 16/18/17 9/19/17
f 15/20/18 16/18/18 12/10/18
f 28/17/19 7/8/19 10/12/19
f 21/21/20 3/13/20 11/15/20
f 42/22/21 35/23/21 1/24/21
f 28/17/22 10/12/22 9/19/22
f 14/25/23 15/20/23 17/26/23
f 12/10/24 13/27/24 15/20/24
f 16/18/25 37/28/25 9/19/25
f 14/25/26 16/18/26 15/20/26
f 20/29/27 17/26/27 15/20/27
f 52/30/28 28/17/28 9/19/28
f 15/20/29 41/31/29 31/32/29
f 31/32/30 20/29/30 15/20/30
f 14/25/31 37/28/31 16/18/31
f 37/28/32 14/25/32 17/26/32
f 18/33/33 37/28/33 17/26/33
f 17/26/34 20/29/34 18/33/34
f 19/34/35 20/29/35 31/32/35
f 34/35/36 20/29/36 19/34/36
f 21/21/37 11/15/37 40/36/37
f 28/17/38 26/37/38 25/9/38
f 12/38/39 50/39/39 13/40/39
f 41/31/40 15/20/40 13/27/40
f 22/41/41 24/42/41 23/43/41
f 4/16/42 5/5/42 58/44/42
f 12/38/43 6/45/43 51/46/43
f 41/47/44 46/48/44 31/49/44
f 20/29/45 32/50/45 18/33/45
f 20/29/46 34/35/46 30/51/46
f 34/35/47 19/34/47 33/52/47
f 38/53/48 22/54/48 23/55/48
f 39/56/49 24/42/49 22/41/49
f 6/45/50 36/57/50 29/58/50
f 25/9/51 26/37/51 67/59/51
f 52/30/52 27/60/52 28/17/52
f 5/5/53 25/9/53 58/44/53
f 6/45/54 29/58/54 51/46/54
f 26/37/55 28/17/55 27/60/55
f 20/29/56 30/51/56 32/50/56
f 42/22/57 21/61/57 53/62/57
f 25/9/58 67/59/58 58/44/58
f 52/30/59 9/19/59 37/28/59
f 13/40/60 64/63/60 41/47/60
f 31/49/61 46/48/61 48/64/61
f 31/49/62 47/65/62 19/66/62
f 32/67/63 71/68/63 18/69/63
f 47/65/64 31/49/64 48/64/64
f 33/52/65 30/51/65 34/35/65
f 1/70/66 35/71/66 36/57/66
f 6/45/67 1/70/67 36/57/67
f 12/38/68 51/46/68 50/39/68
f 37/72/69 75/73/69 52/74/69
f 22/75/70 38/76/70 43/77/70
f 39/56/71 22/41/71 43/78/71
f 11/79/72 39/56/72 40/80/72
f 46/48/73 41/47/73 64/63/73
f 53/62/74 35/23/74 42/22/74
f 37/72/75 71/68/75 75/73/75
f 47/65/76 33/81/76 19/66/76
f 43/78/77 40/80/77 39/56/77
f 39/82/78 11/83/78 45/84/78
f 71/68/79 37/72/79 18/69/79
f 24/85/80 44/86/80 23/87/80
f 32/67/81 57/88/81 71/68/81
f 23/55/82 56/89/82 38/53/82
f 39/56/83 45/90/83 24/42/83
f 58/91/84 68/92/84 4/93/84
f 30/94/85 57/88/85 32/67/85
f 57/88/86 30/94/86 73/95/86
f 48/64/87 46/48/87 49/96/87
f 47/65/88 48/64/88 49/96/88
f 21/21/89 40/36/89 43/97/89
f 81/98/90 21/21/90 43/97/90
f 11/15/91 4/14/91 68/99/91
f 47/65/92 49/96/92 33/81/92
f 24/85/93 45/84/93 44/86/93
f 13/40/94 54/100/94 64/63/94
f 30/94/95 33/101/95 73/95/95
f 55/102/96 23/87/96 44/86/96
f 81/98/97 43/97/97 89/103/97
f 29/58/98 36/57/98 83/104/98
f 69/105/99 50/39/99 51/46/99
f 44/86/100 45/84/100 62/106/100
f 11/83/101 62/106/101 45/84/101
f 27/107/102 78/108/102 26/109/102
f 52/74/103 78/108/103 27/107/103
f 53/62/104 82/110/104 35/23/104
f 50/39/105 54/100/105 13/40/105
f 56/89/106 23/55/106 55/111/106
f 44/86/107 66/112/107 55/102/107
f 21/113/108 81/114/108 53/115/108
f 77/116/109 46/48/109 64/63/109
f 82/117/110 36/57/110 35/71/110
f 83/104/111 36/57/111 82/117/111
f 67/118/112 93/119/112 58/91/112
f 73/95/113 72/120/113 57/88/113
f 61/121/114 56/89/114 55/111/114
f 74/122/115 26/109/115 78/108/115
f 65/123/116 43/77/116 38/76/116
f 93/124/117 67/125/117 94/126/117
f 52/74/118 75/73/118 59/127/118
f 72/120/119 71/68/119 57/88/119
f 58/91/120 93/119/120 68/92/120
f 51/46/121 29/58/121 69/105/121
f 70/128/122 50/39/122 69/105/122
f 50/39/123 70/128/123 54/100/123
f 59/127/124 78/108/124 52/74/124
f 77/116/125 49/96/125 46/48/125
f 60/129/126 33/81/126 49/96/126
f 65/130/127 56/89/127 61/121/127
f 43/77/128 65/123/128 89/131/128
f 81/132/129 82/110/129 53/62/129
f 64/63/130 54/100/130 97/133/130
f 44/86/131 62/106/131 80/134/131
f 63/135/132 29/136/132 83/137/132
f 26/109/133 74/122/133 67/138/133
f 38/53/134 56/89/134 65/130/134
f 77/116/135 64/63/135 97/133/135
f 76/139/136 75/73/136 71/68/136
f 65/140/137 61/141/137 89/142/137
f 80/134/138 66/112/138 44/86/138
f 67/138/139 74/122/139 94/143/139
f 33/101/140 88/144/140 73/95/140
f 66/145/141 61/121/141 55/111/141
f 61/141/142 80/146/142 89/142/142
f 62/147/143 11/15/143 68/99/143
f 69/105/144 29/58/144 63/148/144
f 94/143/145 74/122/145 87/149/145
f 96/150/146 54/100/146 70/128/146
f 97/133/147 54/100/147 95/151/147
f 71/68/148 72/120/148 76/139/148
f 88/144/149 72/120/149 73/95/149
f 74/122/150 78/108/150 87/149/150
f 75/73/151 76/139/151 90/152/151
f 49/96/152 77/116/152 84/153/152
f 59/154/153 101/155/153 78/156/153
f 75/73/154 90/152/154 59/127/154
f 60/129/155 49/96/155 84/153/155
f 80/157/156 62/147/156 109/158/156
f 79/159/157 72/120/157 88/144/157
f 33/81/158 60/129/158 88/160/158
f 80/146/159 61/141/159 66/161/159
f 62/147/160 86/162/160 109/158/160
f 81/132/161 108/163/161 82/110/161
f 108/164/162 83/104/162 82/117/162
f 78/108/163 101/165/163 87/149/163
f 84/153/164 77/116/164 85/166/164
f 84/153/165 85/166/165 91/167/165
f 86/168/166 68/92/166 93/119/166
f 89/103/167 80/157/167 109/158/167
f 76/139/168 72/120/168 79/159/168
f 84/153/169 91/167/169 60/129/169
f 62/147/170 68/99/170 86/162/170
f 104/169/171 93/124/171 94/126/171
f 87/149/172 98/170/172 94/143/172
f 85/171/173 77/172/173 97/173/173
f 79/159/174 88/144/174 91/174/174
f 81/98/175 89/103/175 92/175/175
f 109/158/176 92/175/176 89/103/176
f 95/151/177 90/176/177 97/133/177
f 90/152/178 76/139/178 100/177/178
f 100/177/179 79/159/179 91/174/179
f 91/167/180 88/160/180 60/129/180
f 79/159/181 100/177/181 76/139/181
f 85/166/182 100/178/182 91/167/182
f 92/175/183 108/179/183 81/98/183
f 86/168/184 93/119/184 104/180/184
f 104/169/185 94/126/185 98/181/185
f 59/154/186 103/182/186 101/155/186
f 70/128/187 95/151/187 96/150/187
f 95/151/188 54/100/188 96/150/188
f 100/183/189 97/173/189 90/184/189
f 87/149/190 107/185/190 98/170/190
f 105/186/191 99/187/191 69/105/191
f 69/105/192 99/187/192 70/128/192
f 100/183/193 85/171/193 97/173/193
f 95/188/194 70/189/194 99/190/194
f 101/155/195 103/182/195 102/191/195
f 103/192/196 90/152/196 95/193/196
f 90/152/197 103/192/197 59/127/197
f 105/186/198 102/194/198 99/187/198
f 102/191/199 95/188/199 99/190/199
f 107/195/200 69/105/200 63/148/200
f 87/149/201 101/165/201 102/196/201
f 102/191/202 103/182/202 95/188/202
f 83/137/203 106/197/203 63/135/203
f 107/198/204 63/135/204 106/197/204
f 107/195/205 105/186/205 69/105/205
f 98/181/206 110/199/206 104/169/206
f 87/149/207 102/196/207 105/200/207
f 108/201/208 106/197/208 83/137/208
f 107/198/209 110/199/209 98/181/209
f 107/185/210 87/149/210 105/200/210
f 109/158/211 108/179/211 92/175/211
f 109/158/212 106/202/212 108/179/212
f 110/203/213 109/158/213 86/162/213
f 104/169/214 110/199/214 86/204/214
f 109/158/215 110/203/215 106/202/215
f 107/198/216 106/197/216 110/199/216
